<?xml version="1.0" encoding="utf-8"?>
<!-- Generator: Adobe Illustrator 25.2.1, SVG Export Plug-In . SVG Version: 6.00 Build 0)  -->
<svg version="1.1" id="Capa_1" xmlns="http://www.w3.org/2000/svg" xmlns:xlink="http://www.w3.org/1999/xlink" x="0px" y="0px"
	 viewBox="0 0 192.9 192.9" style="enable-background:new 0 0 192.9 192.9;" xml:space="preserve">
<style type="text/css">
	.st0{fill:#9B9B9B;}
</style>
<path class="st0" d="M190.7,180.1L143.6,133c11.7-14.1,18.8-32.1,18.8-51.8C162.4,36.4,126,0,81.2,0C36.4,0,0,36.4,0,81.2
	c0,44.8,36.4,81.2,81.2,81.2c19.7,0,37.8-7,51.8-18.8l47.1,47.1c1.5,1.5,3.4,2.2,5.3,2.2c1.9,0,3.8-0.7,5.3-2.2
	C193.6,187.8,193.6,183,190.7,180.1z M15,81.2C15,44.7,44.7,15,81.2,15c36.5,0,66.2,29.7,66.2,66.2c0,36.5-29.7,66.2-66.2,66.2
	C44.7,147.4,15,117.7,15,81.2z"/>
</svg>
